<svg width="1512" height="625" viewBox="0 0 1512 625" fill="none" xmlns="http://www.w3.org/2000/svg">
<mask id="mask0_825_317" style="mask-type:alpha" maskUnits="userSpaceOnUse" x="-2" y="0" width="1512" height="617">
<path d="M-2 0H1510V501.643C1510 501.643 1207.5 617 754 617C300.5 617 -2 501.643 -2 501.643V0Z" fill="white"/>
<path d="M-2 0H1510V501.643C1510 501.643 1207.5 617 754 617C300.5 617 -2 501.643 -2 501.643V0Z" fill="url(#paint0_radial_825_317)" fill-opacity="0.2"/>
</mask>
<g mask="url(#mask0_825_317)">
<path fill-rule="evenodd" clip-rule="evenodd" d="M755.5 -714.5C155.167 -714.5 -331.5 -227.833 -331.5 372.5C-331.5 972.833 155.167 1459.5 755.5 1459.5C1355.83 1459.5 1842.5 972.833 1842.5 372.5C1842.5 -227.833 1355.83 -714.5 755.5 -714.5ZM-336.5 372.5C-336.5 -230.595 152.405 -719.5 755.5 -719.5C1358.59 -719.5 1847.5 -230.595 1847.5 372.5C1847.5 975.595 1358.59 1464.5 755.5 1464.5C152.405 1464.5 -336.5 975.595 -336.5 372.5Z" fill="white"/>
<path fill-rule="evenodd" clip-rule="evenodd" d="M755.5 -627.793C203.053 -627.793 -244.793 -179.947 -244.793 372.5C-244.793 924.947 203.053 1372.79 755.5 1372.79C1307.95 1372.79 1755.79 924.947 1755.79 372.5C1755.79 -179.947 1307.95 -627.793 755.5 -627.793ZM-249.793 372.5C-249.793 -182.708 200.292 -632.793 755.5 -632.793C1310.71 -632.793 1760.79 -182.708 1760.79 372.5C1760.79 927.708 1310.71 1377.79 755.5 1377.79C200.292 1377.79 -249.793 927.708 -249.793 372.5Z" fill="white"/>
<path fill-rule="evenodd" clip-rule="evenodd" d="M755.5 -541.054C250.958 -541.054 -158.054 -132.042 -158.054 372.5C-158.054 877.042 250.958 1286.05 755.5 1286.05C1260.04 1286.05 1669.05 877.042 1669.05 372.5C1669.05 -132.042 1260.04 -541.054 755.5 -541.054ZM-163.054 372.5C-163.054 -134.804 248.196 -546.054 755.5 -546.054C1262.8 -546.054 1674.05 -134.804 1674.05 372.5C1674.05 879.803 1262.8 1291.05 755.5 1291.05C248.196 1291.05 -163.054 879.803 -163.054 372.5Z" fill="white"/>
<path fill-rule="evenodd" clip-rule="evenodd" d="M755.501 -454.347C298.845 -454.347 -71.3469 -84.1551 -71.3469 372.5C-71.3469 829.155 298.845 1199.35 755.501 1199.35C1212.16 1199.35 1582.35 829.155 1582.35 372.5C1582.35 -84.1551 1212.16 -454.347 755.501 -454.347ZM-76.3469 372.5C-76.3469 -86.9165 296.084 -459.347 755.501 -459.347C1214.92 -459.347 1587.35 -86.9165 1587.35 372.5C1587.35 831.917 1214.92 1204.35 755.501 1204.35C296.084 1204.35 -76.3469 831.917 -76.3469 372.5Z" fill="white"/>
<path fill-rule="evenodd" clip-rule="evenodd" d="M755.501 -367.608C346.75 -367.608 15.3923 -36.2506 15.3923 372.5C15.3923 781.251 346.75 1112.61 755.501 1112.61C1164.25 1112.61 1495.61 781.251 1495.61 372.5C1495.61 -36.2506 1164.25 -367.608 755.501 -367.608ZM10.3923 372.5C10.3923 -39.012 343.989 -372.608 755.501 -372.608C1167.01 -372.608 1500.61 -39.012 1500.61 372.5C1500.61 784.012 1167.01 1117.61 755.501 1117.61C343.989 1117.61 10.3923 784.012 10.3923 372.5Z" fill="white"/>
<path fill-rule="evenodd" clip-rule="evenodd" d="M755.5 -280.902C394.636 -280.902 102.098 11.6359 102.098 372.5C102.098 733.363 394.636 1025.9 755.5 1025.9C1116.36 1025.9 1408.9 733.363 1408.9 372.5C1408.9 11.6359 1116.36 -280.902 755.5 -280.902ZM97.0984 372.5C97.0984 8.87448 391.875 -285.902 755.5 -285.902C1119.13 -285.902 1413.9 8.87448 1413.9 372.5C1413.9 736.125 1119.13 1030.9 755.5 1030.9C391.875 1030.9 97.0984 736.125 97.0984 372.5Z" fill="white"/>
<path fill-rule="evenodd" clip-rule="evenodd" d="M755.5 -194.163C442.541 -194.163 188.838 59.5406 188.838 372.5C188.838 685.459 442.541 939.162 755.5 939.162C1068.46 939.162 1322.16 685.459 1322.16 372.5C1322.16 59.5406 1068.46 -194.163 755.5 -194.163ZM183.838 372.5C183.838 56.7792 439.78 -199.163 755.5 -199.163C1071.22 -199.163 1327.16 56.7792 1327.16 372.5C1327.16 688.22 1071.22 944.162 755.5 944.162C439.78 944.162 183.838 688.22 183.838 372.5Z" fill="white"/>
<path fill-rule="evenodd" clip-rule="evenodd" d="M755.5 -107.456C490.427 -107.456 275.544 107.428 275.544 372.5C275.544 637.572 490.427 852.456 755.5 852.456C1020.57 852.456 1235.46 637.572 1235.46 372.5C1235.46 107.428 1020.57 -107.456 755.5 -107.456ZM270.544 372.5C270.544 104.666 487.666 -112.456 755.5 -112.456C1023.33 -112.456 1240.46 104.666 1240.46 372.5C1240.46 640.334 1023.33 857.456 755.5 857.456C487.666 857.456 270.544 640.334 270.544 372.5Z" fill="white"/>
<path fill-rule="evenodd" clip-rule="evenodd" d="M755.499 -20.7168C538.331 -20.7168 362.282 155.332 362.282 372.5C362.282 589.668 538.331 765.717 755.499 765.717C972.667 765.717 1148.72 589.668 1148.72 372.5C1148.72 155.332 972.667 -20.7168 755.499 -20.7168ZM357.282 372.5C357.282 152.571 535.57 -25.7168 755.499 -25.7168C975.428 -25.7168 1153.72 152.571 1153.72 372.5C1153.72 592.429 975.428 770.717 755.499 770.717C535.57 770.717 357.282 592.429 357.282 372.5Z" fill="white"/>
<path fill-rule="evenodd" clip-rule="evenodd" d="M755.5 65.9896C586.219 65.9896 448.99 203.219 448.99 372.5C448.99 541.78 586.219 679.01 755.5 679.01C924.781 679.01 1062.01 541.78 1062.01 372.5C1062.01 203.219 924.781 65.9896 755.5 65.9896ZM443.99 372.5C443.99 200.457 583.458 60.9896 755.5 60.9896C927.543 60.9896 1067.01 200.457 1067.01 372.5C1067.01 544.542 927.543 684.01 755.5 684.01C583.458 684.01 443.99 544.542 443.99 372.5Z" fill="white"/>
<path fill-rule="evenodd" clip-rule="evenodd" d="M755.5 152.729C634.124 152.729 535.729 251.124 535.729 372.5C535.729 493.876 634.124 592.271 755.5 592.271C876.876 592.271 975.271 493.876 975.271 372.5C975.271 251.124 876.876 152.729 755.5 152.729ZM530.729 372.5C530.729 248.362 631.362 147.729 755.5 147.729C879.638 147.729 980.271 248.362 980.271 372.5C980.271 496.637 879.638 597.271 755.5 597.271C631.362 597.271 530.729 496.637 530.729 372.5Z" fill="white"/>
<path fill-rule="evenodd" clip-rule="evenodd" d="M755.5 239.436C682.011 239.436 622.436 299.011 622.436 372.5C622.436 445.989 682.011 505.564 755.5 505.564C828.989 505.564 888.564 445.989 888.564 372.5C888.564 299.011 828.989 239.436 755.5 239.436ZM617.436 372.5C617.436 296.249 679.249 234.436 755.5 234.436C831.751 234.436 893.564 296.249 893.564 372.5C893.564 448.751 831.751 510.564 755.5 510.564C679.249 510.564 617.436 448.751 617.436 372.5Z" fill="white"/>
</g>
<defs>
<radialGradient id="paint0_radial_825_317" cx="0" cy="0" r="1" gradientUnits="userSpaceOnUse" gradientTransform="translate(867.5 129.644) rotate(103.11) scale(500.398 1233.83)">
<stop stop-color="white"/>
<stop offset="1" stop-color="white" stop-opacity="0"/>
</radialGradient>
</defs>
</svg>
