<svg width="31" height="39" viewBox="0 0 31 39" fill="none" xmlns="http://www.w3.org/2000/svg">
<path d="M16.8559 35.6143L0 19V22.3941C0 23.2936 0.361566 24.1591 1.01583 24.787L14.4282 38.0072C15.7712 39.3309 17.9578 39.3309 19.3007 38.0072L29.9928 27.4684C31.3357 26.1447 31.3357 23.9894 29.9928 22.6657L16.8559 35.6143Z" fill="white"/>
<path d="M14.4282 29.9922C15.7712 31.3359 17.9578 31.3359 19.3007 29.9922L29.9928 19.2942C31.3357 17.9505 31.3357 15.7627 29.9928 14.419L16.5804 0.999166C15.9264 0.360564 15.0494 0.00214532 14.1355 0L3.44349 0C1.54957 0 0 1.55043 0 3.4454V14.1434C0 15.0564 0.361566 15.935 1.01583 16.5724L14.4282 29.9922ZM7.31741 5.1681C7.88821 5.1681 8.43562 5.39497 8.83923 5.79881C9.24284 6.20265 9.46959 6.75037 9.46959 7.32148C9.46959 7.89259 9.24284 8.44031 8.83923 8.84415C8.43562 9.24798 7.88821 9.47485 7.31741 9.47485C6.74662 9.47485 6.1992 9.24798 5.79559 8.84415C5.39198 8.44031 5.16523 7.89259 5.16523 7.32148C5.16523 6.75037 5.39198 6.20265 5.79559 5.79881C6.1992 5.39497 6.74662 5.1681 7.31741 5.1681Z" fill="white"/>
</svg>
