<svg width="368" height="454" viewBox="0 0 368 454" fill="none" xmlns="http://www.w3.org/2000/svg">
<path d="M383.729 380.619L155.164 273.678C152.158 272.271 149.702 269.867 148.258 266.872L124.627 217.895C122.739 213.978 122.714 209.43 124.558 205.483L137.529 177.757L149.1 152.996L161.273 126.99C163.133 123.056 166.633 120.147 170.846 119.091L223.6 105.847C226.826 105.041 230.211 105.367 233.244 106.772L461.809 213.713C469.051 217.093 472.164 225.69 468.784 232.932L437.829 299.112L408.393 361.983L402.944 373.648C399.579 380.87 390.971 383.999 383.729 380.619Z" fill="url(#paint0_linear_825_74)"/>
<path d="M180.56 174.201C184.931 176.246 186.817 181.446 184.772 185.817C182.728 190.188 177.526 192.073 173.156 190.028C168.784 187.984 166.899 182.782 168.944 178.412C170.99 174.042 176.192 172.156 180.56 174.201Z" fill="white"/>
<path d="M168.353 185.508C168.353 185.508 175.832 185.733 176.859 183.54C185.05 166.032 123.93 137.032 86.5191 141.277C52.8463 145.097 -9.50097 194.748 24.9756 233.845C42.6213 253.856 76.3494 228.403 94.704 198.758C113.059 169.113 137.538 179.175 137.538 179.175" stroke="#333540" stroke-width="2" stroke-miterlimit="10"/>
<defs>
<linearGradient id="paint0_linear_825_74" x1="153.231" y1="138.558" x2="433.737" y2="328.505" gradientUnits="userSpaceOnUse">
<stop stop-color="#7E9BF2"/>
<stop offset="1" stop-color="#5058F2"/>
</linearGradient>
</defs>
</svg>
