<svg width="234" height="382" viewBox="0 0 234 382" fill="none" xmlns="http://www.w3.org/2000/svg">
<path d="M116.645 274.169L80.1326 369.058L30.7456 325.714L-34.957 324.772L1.55518 229.884L116.645 274.169Z" fill="url(#paint0_linear_825_361)"/>
<path d="M116.639 274.174L100.994 314.834C80.3861 321.717 57.3586 321.74 35.5067 313.332C13.6549 304.923 -3.41732 289.47 -14.1016 270.564L1.5498 229.889L116.639 274.174Z" fill="url(#paint1_linear_825_361)"/>
<path d="M163.85 250.034C157.358 266.904 146.668 280.906 133.438 291.341C124.578 298.328 114.578 303.712 103.913 307.258C92.8813 310.941 81.164 312.656 69.3003 312.177C58.9953 311.758 48.5717 309.659 38.4105 305.749C16.5586 297.341 -0.513546 281.888 -11.1827 262.987C-24.9765 238.608 -28.1487 208.492 -17.3104 180.325C-13.0159 169.165 -6.89378 159.264 0.600431 150.812C17.6966 131.503 41.8721 119.822 67.4499 118.276C80.8934 117.451 94.7326 119.438 108.119 124.589C158.153 143.842 183.102 200.001 163.85 250.034Z" fill="url(#paint2_linear_825_361)"/>
<path d="M105.887 161.005C103.702 164.483 99.1108 165.531 95.6336 163.345C92.1558 161.16 91.1078 156.568 93.2942 153.091C95.4791 149.613 100.071 148.565 103.548 150.752C107.025 152.938 108.072 157.527 105.887 161.005Z" fill="white"/>
<path d="M98.8188 149.659C98.8188 149.659 97.8435 155.952 99.5906 157.051C113.521 165.805 144.424 117.215 144.759 85.1685C145.062 56.324 109.655 -1.54645 73.0158 23.4778C54.2622 36.2863 72.2279 67.4452 95.3469 86.0563C118.465 104.669 107.399 124.292 107.399 124.292" stroke="#333540" stroke-width="2" stroke-miterlimit="10"/>
<path opacity="0.61" d="M66.4202 146.931C57.8142 165.682 35.6452 173.911 16.8944 165.305C9.87613 162.083 4.3365 156.961 0.600302 150.812C17.6965 131.503 41.872 119.822 67.4497 118.276C70.8255 127.26 70.7378 137.518 66.4202 146.931Z" fill="#7E9BF2"/>
<defs>
<linearGradient id="paint0_linear_825_361" x1="-11.9575" y1="249.148" x2="68.604" y2="325.928" gradientUnits="userSpaceOnUse">
<stop stop-color="#7DEBF7"/>
<stop offset="1" stop-color="#27DEF2"/>
</linearGradient>
<linearGradient id="paint1_linear_825_361" x1="46.991" y1="229.863" x2="54.9998" y2="309.434" gradientUnits="userSpaceOnUse">
<stop stop-color="#7DEBF7"/>
<stop offset="1" stop-color="#27DEF2"/>
</linearGradient>
<linearGradient id="paint2_linear_825_361" x1="64.4581" y1="127.613" x2="80.5108" y2="287.102" gradientUnits="userSpaceOnUse">
<stop stop-color="#7E9BF2"/>
<stop offset="1" stop-color="#5058F2"/>
</linearGradient>
</defs>
</svg>
